<svg xmlns="http://www.w3.org/2000/svg" width="131" height="82" fill="none" viewBox="0 0 131 82">
  <path fill="#fff" d="M56.72 14.04c0 2.16-1.696 3.857-4.008 3.857-1.08 0-2.004-.463-2.775-1.08l-.308-.309c-1.541-1.543-4.007-1.543-5.394 0-.154.155-.309.155-.309.309-1.54 1.543-4.007 1.388-5.548-.154-1.541-1.543-1.387-4.012.154-5.555 1.541-1.543 3.853-1.543 5.395 0l.308.309a3.904 3.904 0 005.548 0l.309-.309c.77-.771 1.695-1.08 2.774-1.08 2.004.154 3.853 1.852 3.853 4.012zM74.598 31.475c0 1.851-1.542 3.548-3.391 3.548-.925 0-1.85-.308-2.466-1.08 0-.154-.154-.154-.154-.154-.617-.617-1.542-1.08-2.466-1.08-.925 0-1.85.308-2.466.926l-.309.308c-1.387 1.389-3.545 1.235-4.932-.154-1.387-1.389-1.233-3.549.154-4.937.617-.617 1.542-.926 2.466-.926.925 0 1.85.309 2.467.926l.308.308c.616.617 1.541 1.08 2.466.926.924 0 1.85-.463 2.466-1.08l.154-.154c1.387-1.389 3.545-1.389 4.932 0 .308.771.77 1.697.77 2.623zM72.748 45.36c0 1.544-1.233 2.778-2.774 2.624-.617 0-1.387-.309-1.85-.772l-.154-.154c-.462-.463-1.233-.772-2.003-.772-.771 0-1.388.31-1.85.772l-.308.309c-.462.462-1.233.77-1.85.77a2.764 2.764 0 01-2.774-2.776 2.764 2.764 0 012.774-2.777c.771 0 1.387.308 1.85.771l.308.309c.462.462 1.233.771 1.85.771.77 0 1.387-.309 2.003-.771l.154-.155c1.08-1.08 2.775-.925 3.854.155.462.462.77 1.08.77 1.697zM50.862 22.99c0 2.005-1.696 3.702-3.545 3.702-.925 0-1.85-.308-2.62-1.08 0-.154-.154-.154-.154-.154-1.388-1.388-3.7-1.543-5.087-.154l-.308.308a3.495 3.495 0 01-5.086-.154 3.503 3.503 0 01.154-5.091c1.387-1.389 3.7-1.389 5.086 0 .154.154.154.308.309.308.616.617 1.54 1.08 2.466 1.08.924 0 2.003-.463 2.62-1.08l.154-.154a3.717 3.717 0 012.62-1.08c1.85-.154 3.39 1.543 3.39 3.549zM29.284 11.417c-.154 0-.154.154 0 0-.154.154-.154 0 0 0zM60.727 22.989c0 .925-.309 1.851-.925 2.622l-.154.155-.155.154c-.77.771-1.695 1.08-2.774 1.08-.925 0-1.85-.308-2.62-.926l-.154-.154-.154-.154-.308-.309c-1.388-1.697-1.08-4.32.616-5.708 1.695-1.389 4.316-1.08 5.703.617.77.771 1.079 1.543.925 2.623zM15.875 14.04c.154 1.234-.924 2.469-2.157 2.623-1.233.154-2.466-.926-2.62-2.16v-.309c0-.462.153-1.08.462-1.388l.154-.154.154-.155a2.601 2.601 0 011.541-.463c.617 0 1.233.155 1.696.618l.154-.155c.462.463.616.926.616 1.543zM59.801 52.766c0 1.389-1.079 2.315-2.466 2.315-1.387 0-2.312-1.08-2.312-2.469 0-.463.154-1.08.463-1.389l.154-.154.154-.154c.462-.309.925-.617 1.541-.463.617 0 1.233.309 1.696.617l.154.154c.462.463.616.926.616 1.543zM68.125 52.766c0 1.235-1.08 2.315-2.466 2.315-1.233 0-2.312-1.08-2.312-2.469 0-.463.154-.926.462-1.389l.154-.154.154-.154c.463-.309.925-.617 1.542-.463.616 0 1.233.309 1.695.617l.154.154c.308.463.617.926.617 1.543zM76.602 52.766c-.154 1.235-1.233 2.315-2.62 2.16-1.233-.154-2.158-1.08-2.158-2.16 0-.617.154-1.08.462-1.542l.154-.155.154-.154c.463-.309.925-.617 1.542-.463.616 0 1.233.309 1.695.617l.154.154c.463.463.77.926.617 1.543zM29.285 22.989a2.764 2.764 0 01-2.775 2.777 2.764 2.764 0 01-2.774-2.777c0-.617.154-1.234.617-1.697l.154-.309.154-.154c1.079-.926 2.774-.772 3.699.154l.154.154c.462.463.77 1.08.77 1.852zM68.741 38.726c.154 1.543-1.079 2.932-2.62 3.086-1.541.154-2.928-1.08-3.082-2.623v-.463c0-.617.154-1.234.616-1.697l.308-.309.155-.154c1.078-.926 2.774-.771 3.699.154l.154.155c.462.617.77 1.234.77 1.851z"/>
  <path fill="#fff" d="M34.987 14.04c0 .772-.308 1.544-.77 2.16 0 .155-.155.155-.155.155-1.387 1.389-3.545 1.389-4.932 0-.616-.617-1.541-.926-2.466-.926-.77 0-1.541.309-2.158.772-.616.462-1.233.771-2.003.771-.771 0-1.542-.309-2.158-.926l-.308-.308c-1.08-1.389-.771-3.24.616-4.32 1.079-.772 2.62-.772 3.699 0l.154.308c.617.463 1.387.772 2.158.772.925 0 1.85-.309 2.466-.926l.154-.154c1.387-1.235 3.7-1.235 4.932.308.463.617.77 1.543.77 2.315zM55.178 31.474c0 .772-.309 1.543-.771 2.16l-.308.309a3.587 3.587 0 01-4.932.154c-.617-.617-1.542-.925-2.467-.925-.77 0-1.54.308-2.157.771-1.233.926-2.929.926-4.162-.154l-.308-.309c-.462-.463-.617-1.234-.617-1.851a3.093 3.093 0 013.083-3.086c.77 0 1.541.309 2.004.771 0 0 0 .155.154.155 1.387 1.08 3.237.925 4.47-.155l.154-.154c1.387-1.234 3.699-1.234 4.932.309.462.308.77 1.234.925 2.005zM75.06 14.04c0 2.16 1.696 3.857 4.008 3.857 1.079 0 2.004-.463 2.774-1.08l.154-.309a3.904 3.904 0 015.549 0l.308.309c1.541 1.543 4.008 1.388 5.549-.154 1.541-1.543 1.387-4.012-.154-5.555-1.542-1.543-3.854-1.543-5.395 0-.154.309-.154.463-.308.463a3.904 3.904 0 01-5.549 0l-.154-.309a3.904 3.904 0 00-5.548 0c-.771.926-1.233 1.852-1.233 2.778zM80.917 22.99c0 2.005 1.696 3.548 3.7 3.548.924 0 1.849-.308 2.465-1.08l.155-.154c.616-.772 1.695-1.08 2.62-1.08.924 0 1.85.308 2.62 1.08l.308.308a3.495 3.495 0 005.086-.154 3.503 3.503 0 00-.154-5.091c-1.387-1.389-3.699-1.389-5.086 0l-.308.308c-1.387 1.389-3.7 1.389-5.086 0l-.155-.154c-.616-.617-1.54-1.08-2.466-1.08-2.003-.154-3.699 1.389-3.699 3.549 0 0 0-.155 0 0zM71.053 22.989c0 .925.308 1.851.925 2.622l.154.155.154.154c.77.771 1.696 1.08 2.775 1.08.924 0 1.849-.308 2.62-.926l.154-.154.154-.154.308-.309c1.387-1.697 1.08-4.32-.616-5.708-1.696-1.389-4.316-1.08-5.703.617-.77.771-1.079 1.543-.925 2.623zM115.904 14.04c0 1.235 1.079 2.315 2.312 2.315 1.233 0 2.312-1.08 2.312-2.315 0-.617-.154-1.08-.616-1.388l-.155-.155-.154-.154c-.924-.771-2.312-.617-3.082.154l-.154.155c-.154.308-.463.771-.463 1.388zM102.495 22.989c-.154 1.543 1.079 2.931 2.62 3.086 1.541.154 2.929-1.08 3.083-2.623v-.463c0-.617-.154-1.234-.617-1.697 0-.155-.154-.155-.308-.309l-.154-.154c-1.079-.926-2.775-.772-3.699.154l-.154.154a2.554 2.554 0 00-.771 1.852zM96.792 14.04c0 .772.308 1.543.77 2.16l.155.155c1.387 1.388 3.545 1.388 4.932 0 .617-.618 1.541-.926 2.466-.926.771 0 1.541.308 2.158.771.616.463 1.233.772 2.004.772.77 0 1.541-.309 2.157-.926l.309-.309c1.079-1.388.77-3.24-.617-4.32-1.079-.771-2.62-.771-3.699 0l-.154.155c-1.387 1.08-3.237 1.08-4.47-.155 0 0-.154 0-.154-.154-1.387-1.234-3.699-1.234-4.932.309-.617.617-.925 1.543-.925 2.468zM76.601 31.474c0 .772.308 1.543.77 2.16l.155.155c1.387 1.388 3.545 1.388 4.932 0 .616-.617 1.541-.926 2.466-.926.77 0 1.541.309 2.158.772h.154c.616.462 1.233.771 2.004.771.77 0 1.54-.309 2.157-.926l.309-.308c1.078-1.389.77-3.24-.617-4.32-1.079-.772-2.62-.772-3.699 0l-.154.154c-.617.463-1.387.771-2.158.771-.925 0-1.695-.308-2.312-.925l-.154-.155c-1.387-1.234-3.699-1.234-4.932.309-.617.617-.925 1.543-1.079 2.468zM71.67 0h-8.015c-.308 0-.617.154-.617.463 0 .154 0 .154.155.308 1.387 2.315-1.388 6.79-1.388 6.79l-.924 1.542-1.85 2.931c-.154.155-.154.309 0 .463l6.628 13.115c.154.154.462.308.616.154l.154-.154 6.628-13.115c.154-.154.154-.308 0-.463l-.154-.308-.925-1.389c-.617-1.08-1.541-2.468-1.695-2.777-.463-1.389.308-2.777 1.54-3.394.309-.155.617-.155.771-.155.617 0 1.08 0 1.542.309.308.154.462 0 .616-.309v-.154C75.215 1.851 73.673.154 71.67 0zm-3.237 3.086h-.308c-.463-.463-.309-1.852-.309-1.852h3.7c-.925.772-2.004 1.389-3.083 1.852zM13.255 81.155l-1.233-3.857H5.24l-1.233 3.857H0l6.628-18.36h4.47l6.473 18.36h-4.316zM8.631 66.96L6.32 74.212h4.624L8.631 66.96zM20.499 81.155v-3.24l9.556-11.88h-9.248v-3.24h14.026v3.085l-9.556 12.035h9.556v3.24H20.499zM46.238 81.772c-2.774 0-5.086-.772-6.473-2.469-1.541-1.697-2.312-4.011-2.312-7.097 0-1.543.154-2.931.617-4.166.462-1.234.924-2.314 1.695-3.085.77-.926 1.696-1.543 2.774-2.006 1.08-.463 2.312-.617 3.7-.617 1.387 0 2.62.154 3.699.617 1.078.463 2.003 1.08 2.774 2.006.77.925 1.233 1.851 1.695 3.24.463 1.234.617 2.623.617 4.165 0 3.24-.77 5.555-2.312 7.098-1.387 1.543-3.7 2.314-6.474 2.314zm0-3.24c.617 0 1.388-.154 2.004-.309.617-.308 1.079-.617 1.541-1.08.463-.463.771-1.234 1.08-2.005.307-.772.462-1.698.462-2.778 0-2.16-.463-3.857-1.233-4.937-.771-1.08-2.158-1.697-3.7-1.697-1.695 0-2.928.617-3.699 1.697-.924 1.08-1.232 2.777-1.232 4.937s.462 3.703 1.387 4.783c.924 1.08 1.85 1.389 3.39 1.389zM69.666 81.155v-4.783c0-.926-.154-1.543-.617-1.851-.462-.309-1.233-.618-2.312-.618h-4.161v7.252h-3.7v-18.36h9.248c.771 0 1.542.154 2.312.463.617.308 1.233.617 1.85 1.08.462.463.925 1.08 1.079 1.697.308.617.462 1.388.462 2.16 0 .926-.308 1.851-.77 2.623-.463.771-1.08 1.234-2.004 1.543.77.308 1.387.617 1.695 1.234.308.463.463 1.389.463 2.469v5.245h-3.545v-.154zm-6.936-15.12v4.937h4.778c1.079 0 1.695-.154 2.158-.617.462-.463.616-1.08.616-1.697 0-.772-.154-1.235-.616-1.698-.463-.462-1.08-.617-2.004-.617H62.73v-.308zM77.68 81.155v-18.36h7.09c1.233 0 2.312.154 3.39.617 1.08.463 2.005 1.08 2.775 1.851.77.772 1.387 1.697 1.696 2.777.308 1.08.616 2.315.616 3.703 0 1.389-.154 2.623-.616 3.858-.463 1.234-.925 2.16-1.542 2.931-.77.772-1.541 1.389-2.466 1.852-.925.462-2.003.617-3.236.617H77.68v.154zm6.936-3.086c1.695 0 2.928-.463 3.699-1.543.77-1.08 1.079-2.623 1.079-4.628 0-1.08-.154-1.852-.308-2.623-.154-.772-.463-1.389-.925-1.852-.463-.463-.925-.771-1.541-1.08a9.319 9.319 0 00-2.312-.308h-2.775v12.034h3.083zM97.255 81.155v-18.36h13.563v3.24h-9.71v3.857h8.939v3.24h-8.939v4.783h10.172v3.24H97.255zM120.373 81.155l-6.165-18.36h4.162l4.007 12.96 4.007-12.96h4.008l-6.165 18.36h-3.854z"/>
</svg>
