<svg xmlns="http://www.w3.org/2000/svg" viewBox="0 0 383.89 383.89"><defs><style>.cls-1{fill:#d5d5d5;}</style></defs><g id="Capa_2" data-name="Capa 2"><g id="Capa_1-2" data-name="Capa 1"><path class="cls-1" d="M45,0h.75c.32,1.31,1.5,1.93,2.35,2.78q70.44,70.5,140.88,141c2.38,2.4,3.58,2.41,6,0q70.37-70.59,140.88-141c.85-.85,2-1.45,2.33-2.78h.75l45,45v.75c-1.33.29-1.94,1.48-2.79,2.33q-70.5,70.46-141,140.88c-2.41,2.4-2.38,3.59,0,6q70.59,70.37,141,140.88c.85.84,1.46,2,2.78,2.34v.75q-22.83,22.16-45,45h-.75c-.29-1.33-1.49-1.94-2.33-2.78q-70.45-70.51-140.88-141c-2.4-2.41-3.6-2.37-6,0q-70.38,70.6-140.89,141c-.85.84-2,1.45-2.33,2.78H45c-1.43-1.53-2.81-3.1-4.3-4.57Q20.37,359.1,0,338.9v-.75c1.33-.29,1.93-1.48,2.78-2.33q70.52-70.45,141-140.89c2.39-2.39,2.41-3.59,0-6q-70.61-70.38-141-140.9c-.85-.84-1.45-2-2.79-2.31V45Q22.83,22.82,45,0Z"/></g></g></svg>