<svg width="96" height="96" viewBox="0 0 96 96" fill="none" xmlns="http://www.w3.org/2000/svg">
<path d="M42.1102 62.0391C41.374 62.0368 40.6454 61.8893 39.9663 61.6052C39.2871 61.321 38.6707 60.9057 38.1522 60.3831L29.7302 51.9611C29.2054 51.4401 28.7886 50.8206 28.5038 50.1382C28.219 49.4558 28.0717 48.7238 28.0703 47.9844C28.069 47.2449 28.2137 46.5124 28.496 45.829C28.7784 45.1456 29.1929 44.5246 29.7158 44.0017C30.2387 43.4788 30.8596 43.0643 31.5431 42.7819C32.2265 42.4996 32.959 42.3549 33.6985 42.3562C34.4379 42.3576 35.1699 42.5049 35.8523 42.7897C36.5347 43.0745 37.1542 43.4913 37.6752 44.0161L42.4192 48.7601L58.1122 35.3131C59.2496 34.5493 60.627 34.2278 61.985 34.409C63.343 34.5902 64.588 35.2617 65.4853 36.2969C66.3827 37.3322 66.8706 38.6599 66.8571 40.0299C66.8436 41.3999 66.3297 42.7176 65.4122 43.7351L45.7612 60.5791C44.7597 61.4896 43.4633 62.008 42.1102 62.0391Z" fill="#95FFB9"/>
<path d="M47.725 95.7249C38.2859 95.7249 29.0588 92.9259 21.2104 87.6818C13.3621 82.4377 7.24506 74.9841 3.63287 66.2635C0.0206783 57.5429 -0.924436 47.947 0.917044 38.6892C2.75852 29.4315 7.30389 20.9277 13.9784 14.2533C20.6528 7.57879 29.1566 3.03343 38.4143 1.19195C47.6721 -0.649533 57.268 0.295581 65.9886 3.90777C74.7092 7.51997 82.1628 13.637 87.4069 21.4853C92.651 29.3337 95.45 38.5608 95.45 47.9999C95.4501 54.2673 94.2158 60.4733 91.8174 66.2636C89.4191 72.054 85.9037 77.3152 81.472 81.7469C77.0403 86.1786 71.7791 89.694 65.9887 92.0923C60.1984 94.4907 53.9924 95.7251 47.725 95.7249ZM47.725 11.5049C40.506 11.5049 33.4491 13.6456 27.4467 17.6563C21.4443 21.667 16.766 27.3675 14.0034 34.037C11.2408 40.7065 10.518 48.0454 11.9264 55.1257C13.3347 62.206 16.811 68.7097 21.9156 73.8143C27.0202 78.9189 33.5239 82.3952 40.6042 83.8036C47.6845 85.212 55.0235 84.4891 61.693 81.7265C68.3625 78.9639 74.063 74.2856 78.0737 68.2832C82.0843 62.2808 84.225 55.2239 84.225 48.0049C84.2258 43.2114 83.2823 38.4647 81.4482 34.0359C79.6142 29.6071 76.9257 25.583 73.5362 22.1934C70.1468 18.8038 66.1227 16.1152 61.694 14.2811C57.2652 12.447 52.5185 11.5033 47.725 11.5039V11.5049Z" fill="#95FFB9"/>
</svg>
