<svg xmlns="http://www.w3.org/2000/svg" width="25" height="18.302" viewBox="0 0 25 18.302">
  <g id="Grupo_16199" data-name="Grupo 16199" transform="translate(-2339.5 517)">
    <g id="delivery-truck_1_" data-name="delivery-truck (1)" transform="translate(2339.5 -517)">
      <path id="Trazado_11763" data-name="Trazado 11763" d="M335.871,164.8h-5.162v9.356h8.458v-4.211l-.986-3.409a2.4,2.4,0,0,0-2.309-1.736" transform="translate(-314.562 -160.103)" fill="#4513fe"/>
      <path id="Trazado_11764" data-name="Trazado 11764" d="M360.821,192.791l-.879-3.039a1.237,1.237,0,0,0-1.182-.888h-3.987v3.927Z" transform="translate(-337.451 -182.992)" fill="#84dbff"/>
      <path id="Trazado_11765" data-name="Trazado 11765" d="M360.782,192.759h-6.051v-3.927Z" transform="translate(-337.411 -182.962)" fill="#cdd6e0"/>
      <path id="Trazado_11766" data-name="Trazado 11766" d="M360.821,192.791l-.879-3.039a1.237,1.237,0,0,0-1.182-.888h-3.987Z" transform="translate(-337.451 -182.992)" fill="#f2f2f2"/>
      <path id="Trazado_11767" data-name="Trazado 11767" d="M1.562,68.6H14.584a1.563,1.563,0,0,1,1.562,1.562V82.65H0V70.159A1.562,1.562,0,0,1,1.562,68.6" transform="translate(0 -68.597)" fill="#ffd119"/>
      <path id="Trazado_11768" data-name="Trazado 11768" d="M118.921,68.651v4.128l-.6-.6-.633.633-.633-.633-.633.633-.634-.633-.641.633-.632-.633-.611.611V68.651Z" transform="translate(-108.338 -68.648)" fill="#4513fe"/>
      <path id="Trazado_11769" data-name="Trazado 11769" d="M25.041,320.691v1.765h-25v-1.765H2.652a3.58,3.58,0,0,1,6.25,0h8.4a3.575,3.575,0,0,1,6.244,0Z" transform="translate(-0.041 -306.639)" fill="#334a5e"/>
      <path id="Trazado_11770" data-name="Trazado 11770" d="M371.218,343.732a2.495,2.495,0,1,1-2.5-2.5,2.5,2.5,0,0,1,2.5,2.5" transform="translate(-348.348 -327.926)" fill="#40596b"/>
      <path id="Trazado_11771" data-name="Trazado 11771" d="M398.794,372.82a1,1,0,1,1-1-1,1,1,0,0,1,1,1" transform="translate(-377.416 -357.013)" fill="#acb3ba"/>
      <path id="Trazado_11772" data-name="Trazado 11772" d="M71.326,343.732a2.5,2.5,0,1,1-2.5-2.5,2.5,2.5,0,0,1,2.5,2.5" transform="translate(-63.097 -327.926)" fill="#40596b"/>
      <path id="Trazado_11773" data-name="Trazado 11773" d="M98.912,372.82a1,1,0,1,1-1-1,1,1,0,0,1,1,1" transform="translate(-92.176 -357.013)" fill="#acb3ba"/>
    </g>
    <g id="Grupo_16198" data-name="Grupo 16198" transform="translate(2343.7 -510.587)">
      <path id="Trazado_11774" data-name="Trazado 11774" d="M355.535,338.831a3.011,3.011,0,0,1-1.637-.38c-.145-.107-.305-.252-.258-.446.06-.246.3-.147.46-.148,1.607-.007,3.213,0,4.82,0,.928,0,.928,0,.654.888Z" transform="translate(-353.633 -337.838)" fill="#4513fe"/>
      <path id="Trazado_11775" data-name="Trazado 11775" d="M369.931,345.129v.827l-1.852.091a3.249,3.249,0,0,1-1.709-.285.908.908,0,0,1-.462-.669Z" transform="translate(-363.987 -343.957)" fill="#4513fe"/>
      <path id="Trazado_11776" data-name="Trazado 11776" d="M381.761,352.153c-.065.3.487.685-.007.893a1.444,1.444,0,0,1-1.823-.918Z" transform="translate(-375.815 -349.891)" fill="#4513fe"/>
    </g>
  </g>
</svg>
