<svg id="Componente_2_1" data-name="Componente 2 – 1" xmlns="http://www.w3.org/2000/svg" width="212.288" height="40.504" viewBox="0 0 212.288 40.504">
  <path id="Trazado_12062" data-name="Trazado 12062" d="M691.218,379.019c-2.815-.649-9.679-.485-9.679-.485l-4.32,16.221h-3.291l-1.271,4.911H675.9s-3.354,12.534-4.85,18.2H676l4.847-18.2s3.609-.194,4.347.326c1.054.743.657,1.98.365,3.07-1.3,4.855-2.622,9.839-3.943,14.8h5.114l3.8-14.249c.642-2.41.944-4.863-2.4-6.524,2.641-.634,4.283-1.781,4.97-3.759a34.385,34.385,0,0,0,2.158-8.938C695.456,381.356,694.212,379.71,691.218,379.019Zm-3.526,14.722c-.655,1.212-1.99,1.093-3.1,1.093-2.439.006-2.47,0-2.47,0l3.031-11.375s1.2.005,2.344,0c1.286-.006,2.528.4,2.475,1.839A19.2,19.2,0,0,1,687.692,393.741Z" transform="translate(-525.583 -377.982)" fill="#3600ff"/>
  <path id="Trazado_12063" data-name="Trazado 12063" d="M489.423,399.729h3.18l-4.838,18.2h5.311l4.813-18.2h5.373s-3.38,12.587-4.862,18.173l5.272.028L514.124,378.6h-5.26l-4.31,16.221s-.026,0-3.949,0h-1.412l4.365-16.221h-5.3l-4.285,16.221h-3S489.664,398.754,489.423,399.729Z" transform="translate(-384.419 -378.044)" fill="#fff"/>
  <path id="Trazado_12064" data-name="Trazado 12064" d="M230.517,417.9c2.94,0,4.868-2.226,5.653-5.044q1.168-4.195,2.278-8.406c1.626-6.117,3.334-12.213,4.826-18.363,1.085-4.475-1.044-7.168-5.589-7.366-2.325-.1-4.66,0-6.984-.109-1.072-.052-1.353.415-1.589,1.328-1.191,4.61-2.458,9.2-3.685,13.8-2.136,8.011-4.273,15.972-6.451,24.16Zm-5.026-4.862,7.852-29.4s1.234-.023,2.362.007c1.227.033,2.185.5,2.232,1.91a6.034,6.034,0,0,1-.189,1.718q-2.928,11.105-5.9,22.2c-.721,2.7-1.577,3.542-4.6,3.563C226.227,413.036,225.491,413.039,225.491,413.039Z" transform="translate(-177.404 -378.055)" fill="#fff"/>
  <path id="Trazado_12065" data-name="Trazado 12065" d="M411.822,404.735h-5.316s-.72,2.968-.871,3.766a13.839,13.839,0,0,0-.25,2.95,4.789,4.789,0,0,0,1.71,3.691c4.338,3.594,12.289,1.19,13.814-4.2q1.281-4.528,2.4-9.1c.9-3.685-.268-6.214-3.6-8-.819-.438-1.642-.87-2.447-1.333a2.333,2.333,0,0,1-1.29-2.317,25.415,25.415,0,0,1,1.925-7.206,2.756,2.756,0,0,1,3.642-1.158c1.353.624,1.326,1.753,1.014,2.972-.184.721-.337,1.452-.536,2.316H427.2a15.215,15.215,0,0,0,.836-3.831c.231-3.209-.814-5.131-3.4-6.211a9.8,9.8,0,0,0-3.587-.682c-4.428-.1-7.779,2.121-8.554,6.306-.422,2.279-1.178,4.5-1.763,6.746-.934,3.6.074,5.945,3.309,7.723.814.447,1.666.828,2.473,1.287A2.669,2.669,0,0,1,418,401.219a48.046,48.046,0,0,1-2.25,8.761c-.506,1.391-2.474,1.931-3.907,1.292s-1.125-1.868-.9-3.018C411.108,407.4,411.822,404.735,411.822,404.735Z" transform="translate(-320.968 -376.345)" fill="#fff"/>
  <path id="Trazado_12066" data-name="Trazado 12066" d="M592.555,399.586h3.172s.031-.084-.484,1.858c-.727,2.745-1.5,5.479-2.19,8.232-1.23,4.88.468,7.612,5.391,8.111.75.076,6.978,0,6.978,0l1.305-4.9c-2.2,0-4.183.042-6.144,0-2.191-.047-3.046-1.293-2.513-3.372.763-2.974,2.64-9.928,2.64-9.928h7.811l1.178-4.911h-7.684s1.128-4.1,1.52-5.618c1.394-5.388,1.625-5.569,7.2-5.569h3.822l1.341-5.066s-6.5-.039-9.179.032c-3.725.1-5.929,2.1-6.882,5.717-.826,3.138-2.751,10.5-2.751,10.5h-3.358S592.77,398.731,592.555,399.586Z" transform="translate(-465.126 -377.902)" fill="#3600ff"/>
  <path id="Trazado_12067" data-name="Trazado 12067" d="M330.125,376.369a12.932,12.932,0,0,0-3.993-.036c-3.609.524-5.466,2.127-6.41,5.672q-.245.919-.49,1.837h-.022l-4.284,16.221h-3s-1.31,3.937-1.55,4.911h3.18l-3.088,11.067h5.311l3.064-11.067h5.373s-1.631,5.454-3.113,11.04l5.273.028,6.271-23.2.071.009c.626-2.341,1.242-4.685,1.828-7.035l.534-1.976h-.05c.021-.09.044-.179.066-.269C336.055,379.561,334.182,377.032,330.125,376.369Zm-.307,7.473-4.309,16.221s-.026,0-3.949,0c-1.25,0-1.411,0-1.411,0l2.25-8.361h.009q.471-1.761.939-3.522l1.167-4.339h-.025c.4-1.442,1.107-2.446,2.775-2.468,1.943-.025,2.81.783,2.568,2.468Z" transform="translate(-247.799 -376.195)" fill="#fff"/>
  <g id="Grupo_16307" data-name="Grupo 16307" transform="translate(172.574 10.116)">
    <path id="Trazado_12068" data-name="Trazado 12068" d="M789.276,420.211a22.412,22.412,0,0,1,1.977,5.973h27.228c10.2,0,10.443-5.973,10.443-5.973Z" transform="translate(-789.21 -420.211)" fill="#fff"/>
    <path id="Trazado_12069" data-name="Trazado 12069" d="M798.691,457.164h16.545c7.335,0,8.379-5.645,8.379-5.645H798.691a22.836,22.836,0,0,1,0,5.645Z" transform="translate(-796.461 -444.324)" fill="#fff"/>
    <path id="Trazado_12070" data-name="Trazado 12070" d="M791.743,488.141c10.665,0,10.464-5.918,10.464-5.918H790.994a22.431,22.431,0,0,1-2.007,5.918Z" transform="translate(-788.987 -467.971)" fill="#fff"/>
  </g>
  <g id="Grupo_16308" data-name="Grupo 16308" transform="translate(0 10.116)">
    <path id="Trazado_12071" data-name="Trazado 12071" d="M77.737,420.211a22.418,22.418,0,0,0-1.976,5.973H48.533c-10.2,0-10.443-5.973-10.443-5.973Z" transform="translate(-38.09 -420.211)" fill="#fff"/>
    <path id="Trazado_12072" data-name="Trazado 12072" d="M117.666,457.164H101.12c-7.335,0-8.378-5.645-8.378-5.645h24.924a22.833,22.833,0,0,0,0,5.645Z" transform="translate(-80.182 -444.324)" fill="#fff"/>
    <path id="Trazado_12073" data-name="Trazado 12073" d="M163.831,488.141c-10.665,0-10.465-5.918-10.465-5.918H164.58a22.413,22.413,0,0,0,2.008,5.918Z" transform="translate(-126.873 -467.971)" fill="#fff"/>
  </g>
</svg>
