<svg xmlns="http://www.w3.org/2000/svg" xmlns:xlink="http://www.w3.org/1999/xlink" width="1409.728" height="826.02" viewBox="0 0 1409.728 826.02">
  <defs>
    <filter id="Icon_awesome-map-marker-alt" x="923.078" y="524.392" width="82.693" height="104.257" filterUnits="userSpaceOnUse">
      <feOffset dy="3" input="SourceAlpha"/>
      <feGaussianBlur stdDeviation="3" result="blur"/>
      <feFlood flood-opacity="0.161"/>
      <feComposite operator="in" in2="blur"/>
      <feComposite in="SourceGraphic"/>
    </filter>
  </defs>
  <g id="Grupo_16347" data-name="Grupo 16347" transform="translate(-331.793 -123.98)">
    <path id="Trazado_12101" data-name="Trazado 12101" d="M1634.746,1102.163c226.808,0,410.958,15.039,410.958,33.566s-184.149,33.568-410.958,33.568-410.96-15.04-410.96-33.568,184.149-33.566,410.96-33.566Z" transform="translate(-693.975 -310.297)" fill="#ededed" opacity="0.45"/>
    <g id="Grupo_16346" data-name="Grupo 16346">
      <path id="Trazado_12100" data-name="Trazado 12100" d="M16706.061-844.242s124.313-38.182,284.242-41.212,190.908,126.061,334.545,155.152,178.787-141.818,247.271-113.939c16.834,6.853,107.988,31.933,143.031,96.97,31.809,59.031,10.693,157.535-31.514,181.818-66.186,38.08-118.7,83.331-233.334,67.455-38.428-5.322-83.318-90.972-104.242-86.848" transform="translate(-15994 1322)" fill="none" stroke="#3089a5" stroke-linecap="round" stroke-width="10" stroke-dasharray="60"/>
      <g id="Grupo_16322" data-name="Grupo 16322" transform="matrix(0.996, -0.087, 0.087, 0.996, -855.396, 108.22)">
        <text id="_4" data-name="4" transform="translate(1335.233 417.5) rotate(-42.311)" fill="#2a1ef9" font-size="232" font-family="Poppins-ExtraBold, Poppins" font-weight="800"><tspan x="0" y="0">4</tspan></text>
        <path id="Trazado_12089" data-name="Trazado 12089" d="M1203.712,917.624l9.833-22.252c10.054.614,24.439,1.6,38.063,9.018,7.328-21.634,21.245-37.634,31.388-45.645l88.531,7.743c-19.834,40.875-67.711,83.514-79.563,86.813-10.9,3.036-25.486-.447-40.357-6.864-17.389-7.5-35.169-19.019-47.9-28.812Z" transform="translate(-29.086 -372.493)" fill="#4439fa"/>
        <path id="Trazado_12090" data-name="Trazado 12090" d="M1289.716,621.11c-43.308,53.834,11.008,152.673,77.258,150.147,22.874-.868,82.281-29.013,82.45-28.888,3.015,2.269,26.533,38.32,27.716,38.192,5.97-.664,25.361-12.848,25.211-14.188-.643-5.774-28.148-75.253-44.355-82.2-14.456-6.2-63.956,8.918-65.185,9.826-1.922,1.415-2.284-19.823-9.815-38.4-30.481-75.19-77.269-54.391-93.279-34.49Z" transform="translate(-65.047 -241.768)" fill="#2a1ef9"/>
        <path id="Trazado_12091" data-name="Trazado 12091" d="M1184.459,925.749,1174.626,948,1146.7,966.167l16.422-47.878,21.338,7.46Z" transform="translate(0 -402.87)"/>
        <path id="Trazado_12092" data-name="Trazado 12092" d="M1688.489,951.234l7.943,18.247,51.369-32.439h-34.093l-25.218,14.192Z" transform="translate(-276.404 -412.438)"/>
        <path id="Trazado_12093" data-name="Trazado 12093" d="M1322.776,605.97c7.825,21.323,28.662,29.6,53.437,31.674,41.632,3.487,71.227-19.637,99.047-47.332,12.38-12.323,25.1-32.589,25.589-51.461.25-9.568-7.264-22.685-16.3-20.83-5.927,1.214-13.141,29.645-18.7,16.921-1.4-3.2-6.938-8.975-11.108-4.13-4.8,5.574-.35,14.946-3.048,21.563-5.888,14.438-27.319,31.163-37.334,32.021-14.459,1.236-28.676-4.52-43.015-12.005-39.935-20.844-56.949,10.723-48.564,33.579Z" transform="translate(-88.763 -198.576)" fill="#ffc09e"/>
        <path id="Trazado_12094" data-name="Trazado 12094" d="M1399.062,684.879s-47.539,11.187-68.926-10.5-21.734-44.279-4.991-58.761c22.356-19.333,73.918,15.264,73.918,15.264v54Z" transform="translate(-84.979 -245.461)" fill="#2a1ef9"/>
        <path id="Trazado_12095" data-name="Trazado 12095" d="M1473.026,640.486l-4.284,66.958,32.1-6.881-6.81-60.076Z" transform="translate(-164.296 -261.144)" fill="#8d9ad0"/>
        <path id="Trazado_12096" data-name="Trazado 12096" d="M1296.393,445.661c18.912-5.638,39.164,6.22,45.2,26.465s3.688,37.4-15.224,43.04-47.278-2.373-53.309-22.614,4.42-41.254,23.335-46.892Z" transform="translate(-63.592 -161.035)" fill="#f9c3a1"/>
        <path id="Trazado_12097" data-name="Trazado 12097" d="M1349.244,1102.163c69.24,0,125.457,4.591,125.457,10.247s-56.217,10.248-125.457,10.248-125.458-4.591-125.458-10.248,56.217-10.247,125.458-10.247Z" transform="translate(-39.327 -496.677)" fill="#ededed" opacity="0.45"/>
        <path id="Trazado_12098" data-name="Trazado 12098" d="M1250.34,439.783c-5.306-16.871,43.9-36.366,44.015-36.208,1.344,1.836-1.583,13.881-1.264,13.717,5.009-2.594,7.707-4.173,11.351-5.271,2.415,13.227-18.883,40.864-34.754,32.829-3.151-1.6,20.563,18.462,11.509,17.751-3.091-.24-10.165-1.651-10.755-1.765-6.11-1.182-9.2,4.416-9.858,6.749a7.637,7.637,0,0,0,3.008,8.525,9.807,9.807,0,0,0,6.849,1.987c.525-.043,2.812-1.122,2.855-.843,1.722,10.854,15.314,18.018,13.82,18.025-13.73.075-41.218-11.212-39.667-32.678.433-6.017-8.936-1.244-8.921-1.765.239-7.864,6.106-6.881,5.97-7.042-8.446-9.894-3.609-17.4,0-20.376-.393,6.506,4.8,7.153,5.842,6.367Z" transform="translate(-46.848 -140.279)"/>
        <g id="Grupo_16321" data-name="Grupo 16321" transform="translate(1189.561 217.297)">
          <path id="Trazado_12099" data-name="Trazado 12099" d="M1269.912,635.485a1.7,1.7,0,0,1-1.659-2.062c2.2-10,5.515-17.968,10.135-24.371a1.7,1.7,0,1,1,2.752,1.986c-4.343,6.02-7.474,13.581-9.573,23.114A1.7,1.7,0,0,1,1269.912,635.485Zm67.128-67.122a1.7,1.7,0,0,1-.788-3.2c22.243-11.633,46.341-19.354,75.838-24.3a1.7,1.7,0,0,1,.562,3.348c-29.533,4.951-52.611,12.34-74.827,23.959A1.689,1.689,0,0,1,1337.04,568.363ZM1253.271,548.4a1.7,1.7,0,0,1-1.584-1.087q-.284-.737-.574-1.472c-.464-1.182-.943-2.4-1.379-3.635a1.7,1.7,0,1,1,3.2-1.133c.417,1.178.886,2.373,1.34,3.529q.292.744.58,1.49a1.7,1.7,0,0,1-1.583,2.309Zm-5.2-18.655a1.7,1.7,0,0,1-1.651-1.311c-2.744-11.721-.456-24.056,1.844-33.492a1.7,1.7,0,0,1,3.3.8c-2.211,9.07-4.417,20.893-1.836,31.915a1.7,1.7,0,0,1-1.654,2.084Zm1.481-169.184a1.692,1.692,0,0,1-1.243-.541A92.356,92.356,0,0,0,1237,350.274q-1.077-.832-2.148-1.666a1.7,1.7,0,1,1,2.089-2.675q1.063.83,2.135,1.655a94.905,94.905,0,0,1,11.715,10.125,1.7,1.7,0,0,1-1.242,2.853Zm15.6-12.19a1.7,1.7,0,0,1-1.6-1.133c-1.5-4.251-3.19-8.588-4.827-12.783-2.873-7.365-5.845-14.981-7.981-22.638a1.7,1.7,0,0,1,3.27-.912c2.089,7.493,5.029,15.028,7.873,22.315,1.646,4.22,3.349,8.585,4.866,12.888a1.7,1.7,0,0,1-1.6,2.262Zm16.72-5.049a1.742,1.742,0,0,1-.335-.033,1.7,1.7,0,0,1-1.331-2c.9-4.5,1.754-9.1,2.577-13.539l.131-.7a1.7,1.7,0,1,1,3.337.619l-.13.7c-.826,4.455-1.68,9.061-2.586,13.587A1.7,1.7,0,0,1,1281.867,343.327Z" transform="translate(-1234.202 -309.668)"/>
        </g>
      </g>
      <text id="_4-2" data-name="4" transform="matrix(1, 0, 0, 1, 580.502, 820.001)" fill="#2a1ef9" font-size="350" font-family="Poppins-ExtraBold, Poppins" font-weight="800"><tspan x="0" y="0">4</tspan></text>
      <text id="_0" data-name="0" transform="translate(845 827)" fill="#2a1ef9" font-size="350" font-family="Poppins-ExtraBold, Poppins" font-weight="800"><tspan x="0" y="0">0</tspan></text>
      <g id="Grupo_16324" data-name="Grupo 16324" transform="translate(-35.874 -28.251)">
        <g id="Grupo_16325" data-name="Grupo 16325" transform="translate(1243.371 682.623)">
          <g id="Grupo_16307" data-name="Grupo 16307" transform="translate(105.465 19.5)">
            <path id="Trazado_12068" data-name="Trazado 12068" d="M789.276,420.211a42.059,42.059,0,0,1,3.711,11.21h51.105c19.148,0,19.6-11.21,19.6-11.21Z" transform="translate(-789.151 -420.211)" fill="#fff"/>
            <path id="Trazado_12069" data-name="Trazado 12069" d="M798.691,462.115h31.054c13.767,0,15.727-10.6,15.727-10.6H798.691a42.855,42.855,0,0,1,0,10.6Z" transform="translate(-794.505 -438.014)" fill="#fff"/>
            <path id="Trazado_12070" data-name="Trazado 12070" d="M794.161,493.33c20.018,0,19.641-11.107,19.641-11.107H792.755a42.1,42.1,0,0,1-3.768,11.107Z" transform="translate(-788.987 -455.473)" fill="#fff"/>
          </g>
          <g id="Grupo_16323" data-name="Grupo 16323" transform="translate(0 19.5)">
            <path id="Trazado_12068-2" data-name="Trazado 12068" d="M863.693,420.211a42.063,42.063,0,0,0-3.711,11.21H808.877c-19.148,0-19.6-11.21-19.6-11.21Z" transform="translate(-789.276 -420.211)" fill="#fff"/>
            <path id="Trazado_12069-2" data-name="Trazado 12069" d="M845.472,462.115H814.418c-13.767,0-15.727-10.6-15.727-10.6h46.781a42.855,42.855,0,0,0,0,10.6Z" transform="translate(-775.116 -438.014)" fill="#fff"/>
            <path id="Trazado_12070-2" data-name="Trazado 12070" d="M808.628,493.33c-20.018,0-19.641-11.107-19.641-11.107h21.047A42.107,42.107,0,0,0,813.8,493.33Z" transform="translate(-739.26 -455.473)" fill="#fff"/>
          </g>
          <g transform="matrix(1, 0, 0, 1, -875.7, -530.39)" filter="url(#Icon_awesome-map-marker-alt)">
            <path id="Icon_awesome-map-marker-alt-2" data-name="Icon awesome-map-marker-alt" d="M29.022,84.517C4.544,49.03,0,45.388,0,32.347a32.347,32.347,0,0,1,64.693,0c0,13.042-4.544,16.684-29.022,52.171A4.045,4.045,0,0,1,29.022,84.517Zm3.324-38.693A13.478,13.478,0,1,0,18.869,32.347,13.478,13.478,0,0,0,32.347,45.824Z" transform="translate(932.08 530.39)" fill="#4e48fa"/>
          </g>
        </g>
      </g>
    </g>
  </g>
</svg>
