<svg width="164" height="141" viewBox="0 0 164 141" fill="none" xmlns="http://www.w3.org/2000/svg">
<path d="M133.307 46.6318C137.686 35.2153 138.321 24.8499 134.724 23.4801C131.126 22.1102 124.66 30.2546 120.28 41.6711C115.901 53.0876 115.267 63.453 118.864 64.8229C122.461 66.1928 128.927 58.0484 133.307 46.6318Z" fill="#2F2E41"/>
<path d="M85.4527 122.085C109.765 122.085 129.474 102.069 129.474 77.3779C129.474 52.6868 109.765 32.6707 85.4527 32.6707C61.1405 32.6707 41.4316 52.6868 41.4316 77.3779C41.4316 102.069 61.1405 122.085 85.4527 122.085Z" fill="#2F2E41"/>
<path d="M79.4101 111.768H65.5996V135.841H79.4101V111.768Z" fill="#2F2E41"/>
<path d="M105.305 111.768H93.2207V135.841H105.305V111.768Z" fill="#2F2E41"/>
<path d="M76.8207 141C83.0179 141 88.0417 139.075 88.0417 136.701C88.0417 134.327 83.0179 132.402 76.8207 132.402C70.6234 132.402 65.5996 134.327 65.5996 136.701C65.5996 139.075 70.6234 141 76.8207 141Z" fill="#2F2E41"/>
<path d="M104.442 141C110.639 141 115.663 139.075 115.663 136.701C115.663 134.327 110.639 132.402 104.442 132.402C98.2445 132.402 93.2207 134.327 93.2207 136.701C93.2207 139.075 98.2445 141 104.442 141Z" fill="#2F2E41"/>
<path d="M87.1786 80.8172C95.2826 80.8172 101.852 74.2734 101.852 66.2013C101.852 58.1292 95.2826 51.5854 87.1786 51.5854C79.0745 51.5854 72.5049 58.1292 72.5049 66.2013C72.5049 74.2734 79.0745 80.8172 87.1786 80.8172Z" fill="white"/>
<path d="M86.3157 72.2194C89.1759 72.2194 91.4946 69.9099 91.4946 67.0609C91.4946 64.2119 89.1759 61.9023 86.3157 61.9023C83.4554 61.9023 81.1367 64.2119 81.1367 67.0609C81.1367 69.9099 83.4554 72.2194 86.3157 72.2194Z" fill="#3F3D56"/>
<path d="M42.0893 36.26C38.4975 20.5735 49.979 4.72293 67.734 0.856783C85.489 -3.00937 102.794 6.57297 106.386 22.2594C109.978 37.9459 98.2107 43.7313 80.4557 47.5975C62.7007 51.4636 45.6811 51.9466 42.0893 36.26Z" fill="#989898"/>
<path d="M55.7688 66.5204C57.419 63.0537 49.7719 55.9976 38.6886 50.7601C27.6053 45.5226 17.2827 44.0871 15.6325 47.5538C13.9823 51.0205 21.6293 58.0766 32.7126 63.3141C43.796 68.5516 54.1185 69.9871 55.7688 66.5204Z" fill="#2F2E41"/>
<path d="M63.874 93.2595C63.874 97.7475 75.2215 106.61 87.8132 106.61C100.405 106.61 112.211 93.9745 112.211 89.4866C112.211 84.9986 100.405 90.3572 87.8132 90.3572C75.2216 90.3572 63.874 88.7715 63.874 93.2595Z" fill="white"/>
<path d="M162.969 141H1.03145C0.75789 141 0.495552 140.909 0.302119 140.748C0.108685 140.587 0 140.368 0 140.14C0 139.912 0.108685 139.694 0.302119 139.532C0.495552 139.371 0.75789 139.281 1.03145 139.281H162.969C163.242 139.281 163.504 139.371 163.698 139.532C163.891 139.694 164 139.912 164 140.14C164 140.368 163.891 140.587 163.698 140.748C163.504 140.909 163.242 141 162.969 141Z" fill="#CCCCCC"/>
</svg>
