
<svg width="62" height="60" viewBox="0 0 62 60" fill="none" xmlns="http://www.w3.org/2000/svg">
<g filter="url(#filter0_i_1059_611)">
<path d="M27.8426 2.78115C28.7407 0.0172183 32.6509 0.0172199 33.549 2.78115L38.71 18.6652C39.1116 19.9012 40.2635 20.7381 41.5632 20.7381L58.2646 20.7381C61.1708 20.7381 62.3791 24.457 60.028 26.1652L46.5162 35.982C45.4647 36.746 45.0248 38.1001 45.4264 39.3361L50.5874 55.2202C51.4855 57.9841 48.322 60.2825 45.9709 58.5743L32.4591 48.7574C31.4077 47.9935 29.9839 47.9935 28.9324 48.7574L15.4207 58.5743C13.0695 60.2825 9.90608 57.9841 10.8041 55.2202L15.9652 39.3361C16.3668 38.1001 15.9268 36.746 14.8754 35.982L1.3636 26.1652C-0.987543 24.457 0.220786 20.7381 3.12696 20.7381L19.8284 20.7381C21.1281 20.7381 22.28 19.9012 22.6816 18.6652L27.8426 2.78115Z" fill="#FAD02C"/>
</g>
<path d="M33.0734 2.93566L38.2345 18.8197C38.703 20.2618 40.0469 21.2381 41.5632 21.2381L58.2646 21.2381C60.6864 21.2381 61.6934 24.3372 59.7341 25.7607L46.2223 35.5775C44.9956 36.4688 44.4823 38.0486 44.9509 39.4907L50.1119 55.3747C50.8603 57.678 48.2241 59.5933 46.2648 58.1698L32.753 48.3529C31.5263 47.4616 29.8652 47.4616 28.6385 48.3529L15.1268 58.1698C13.1675 59.5933 10.5313 57.678 11.2797 55.3747L16.4407 39.4907C16.9093 38.0486 16.396 36.4688 15.1693 35.5775L1.65749 25.7607C-0.301792 24.3372 0.705147 21.2381 3.12696 21.2381L19.8284 21.2381C21.3447 21.2381 22.6885 20.2618 23.1571 18.8197L28.3181 2.93566C29.0665 0.632383 32.325 0.632383 33.0734 2.93566Z" stroke="#FAD02C"/>
<defs>
<filter id="filter0_i_1059_611" x="0.121094" y="0.708252" width="61.1494" height="62.4526" filterUnits="userSpaceOnUse" color-interpolation-filters="sRGB">
<feFlood flood-opacity="0" result="BackgroundImageFix"/>
<feBlend mode="normal" in="SourceGraphic" in2="BackgroundImageFix" result="shape"/>
<feColorMatrix in="SourceAlpha" type="matrix" values="0 0 0 0 0 0 0 0 0 0 0 0 0 0 0 0 0 0 127 0" result="hardAlpha"/>
<feOffset dy="4"/>
<feGaussianBlur stdDeviation="2"/>
<feComposite in2="hardAlpha" operator="arithmetic" k2="-1" k3="1"/>
<feColorMatrix type="matrix" values="0 0 0 0 0 0 0 0 0 0 0 0 0 0 0 0 0 0 0.25 0"/>
<feBlend mode="normal" in2="shape" result="effect1_innerShadow_1059_611"/>
</filter>
</defs>
</svg>
