<svg xmlns="http://www.w3.org/2000/svg" viewBox="0 0 509.95 488.5"><defs><style>.cls-1{fill:#fc0;}</style></defs><g id="Capa_2" data-name="Capa 2"><g id="Capa_1-2" data-name="Capa 1"><path class="cls-1" d="M0,186.09c.28-.14.73-.22.8-.44,5.09-15,16.57-19.5,31.22-20.6,31.25-2.35,62.44-5.5,93.65-8.31,13.38-1.21,26.75-2.55,40.14-3.55,4.21-.31,6.6-1.62,8.38-5.83,18.12-43,36.56-85.79,54.78-128.71C233.92,7,242.21,0,255.06,0c12.65,0,20.87,7,25.74,18.44q27.72,65,55.46,130c1.29,3,2.87,4.27,6.07,4.54q46.59,4,93.16,8.25c16.68,1.51,33.36,3,50,4.77,11.53,1.21,19.39,7.69,22.93,18.54,3.64,11.13.67,21.09-8.07,28.84-24,21.23-48.11,42.26-72.18,63.37-12,10.5-23.92,21-36,31.45-2.09,1.81-2.75,3.34-2.07,6.29,10.6,46.14,21,92.34,31.49,138.5,2.78,12.16.22,22.58-10,30.05s-21,6.85-31.65.45q-60.08-36-120.14-72c-3.58-2.17-6-2.3-9.7-.09q-60,36.17-120.15,72c-13.79,8.23-28.56,6-37.34-5.63-5.58-7.38-6.57-15.59-4.53-24.51,10.54-46.16,20.92-92.35,31.51-138.49.7-3.05.11-4.71-2.18-6.71-35.36-30.88-70.57-61.93-106-92.76C6.24,210.73,2.82,205.18,0,199ZM122.84,450.34c1.3-.7,2.64-1.36,3.91-2.12C163.85,426.06,201,404,238,381.63c11.61-7,22.46-7,34,0C297.14,397,322.53,412,347.82,427.11c12.08,7.22,24.14,14.48,36.23,21.67.9.53,2,1.83,3,.8.54-.52.37-1.87.34-2.84a12.28,12.28,0,0,0-.44-2.44c-9.59-42.3-19.11-84.62-28.82-126.89-2.76-12,.17-21.77,9.49-29.91q45-39.26,89.83-78.73c4.29-3.77,8.54-7.58,13.39-11.9-1.68-.32-2.44-.54-3.22-.61-44.27-4-88.52-8.15-132.81-12-12.74-1.1-21.15-7.25-26.1-18.93Q283,104.6,257,44c-.54-1.26-.6-2.89-2.46-3.79-3.22,7.52-6.39,14.92-9.55,22.32-14.62,34.21-29.31,68.4-43.81,102.66-4.68,11.06-12.39,17.81-24.53,18.92q-61.68,5.63-123.38,11.18c-4.49.41-9,.91-14.38,1.47,1.9,1.72,3,2.72,4.07,3.68q49.4,43.32,98.83,86.58c9.43,8.22,12.75,18,10,30.25q-15.07,66.09-29.84,132.25l-.09,1.26Z"/></g></g></svg>