
<svg width="62" height="60" viewBox="0 0 62 60" fill="none" xmlns="http://www.w3.org/2000/svg">
<g filter="url(#filter0_i_1059_615)">
<path d="M27.7225 2.78115C28.6206 0.0172183 32.5308 0.0172199 33.4288 2.78115L38.5899 18.6652C38.9915 19.9012 40.1434 20.7381 41.443 20.7381L58.1445 20.7381C61.0507 20.7381 62.259 24.457 59.9079 26.1652L46.3961 35.982C45.3446 36.746 44.9047 38.1001 45.3063 39.3361L50.4673 55.2202C51.3654 57.9841 48.2019 60.2825 45.8508 58.5743L32.339 48.7574C31.2876 47.9935 29.8638 47.9935 28.8123 48.7574L15.3005 58.5743C12.9494 60.2825 9.78597 57.9841 10.684 55.2202L15.8451 39.3361C16.2467 38.1001 15.8067 36.746 14.7552 35.982L1.24348 26.1652C-1.10766 24.457 0.10067 20.7381 3.00684 20.7381L19.7083 20.7381C21.008 20.7381 22.1598 19.9012 22.5615 18.6652L27.7225 2.78115Z" fill="#C4C4C4"/>
</g>
<path d="M32.9533 2.93566L38.1143 18.8197C38.5829 20.2618 39.9267 21.2381 41.443 21.2381L58.1445 21.2381C60.5663 21.2381 61.5732 24.3372 59.614 25.7607L46.1022 35.5775C44.8755 36.4688 44.3622 38.0486 44.8307 39.4907L49.9918 55.3747C50.7402 57.678 48.104 59.5933 46.1447 58.1698L32.6329 48.3529C31.4062 47.4616 29.7451 47.4616 28.5184 48.3529L15.0067 58.1698C13.0474 59.5933 10.4112 57.678 11.1596 55.3747L16.3206 39.4907C16.7891 38.0486 16.2758 36.4688 15.0491 35.5775L1.53738 25.7607C-0.421908 24.3372 0.585031 21.2381 3.00684 21.2381L19.7083 21.2381C21.2246 21.2381 22.5684 20.2618 23.037 18.8197L28.198 2.93566C28.9464 0.632383 32.2049 0.632383 32.9533 2.93566Z" stroke="#FAD02C"/>
<defs>
<filter id="filter0_i_1059_615" x="0.000976562" y="0.708252" width="61.1494" height="62.4526" filterUnits="userSpaceOnUse" color-interpolation-filters="sRGB">
<feFlood flood-opacity="0" result="BackgroundImageFix"/>
<feBlend mode="normal" in="SourceGraphic" in2="BackgroundImageFix" result="shape"/>
<feColorMatrix in="SourceAlpha" type="matrix" values="0 0 0 0 0 0 0 0 0 0 0 0 0 0 0 0 0 0 127 0" result="hardAlpha"/>
<feOffset dy="4"/>
<feGaussianBlur stdDeviation="2"/>
<feComposite in2="hardAlpha" operator="arithmetic" k2="-1" k3="1"/>
<feColorMatrix type="matrix" values="0 0 0 0 0 0 0 0 0 0 0 0 0 0 0 0 0 0 0.25 0"/>
<feBlend mode="normal" in2="shape" result="effect1_innerShadow_1059_615"/>
</filter>
</defs>
</svg>
